<svg xmlns="http://www.w3.org/2000/svg" viewBox="0 0 189 188">
  <g id="Layer_6" data-name="Layer 6">
    <path id="Icon_awesome-arrow-circle-down" data-name="Icon awesome-arrow-circle-down" d="M186,94A91.47,91.47,0,1,1,94.53,2.5h0A91.45,91.45,0,0,1,186,93.93ZM133,83.31l-26.69,27.84V43.81A8.83,8.83,0,0,0,97.53,35h-6a8.83,8.83,0,0,0-8.85,8.81v67.39L56,83.31A8.84,8.84,0,0,0,43.5,83l-.13.12-4,4a8.82,8.82,0,0,0,0,12.47l0,0,48.91,48.94a8.81,8.81,0,0,0,12.47,0l0,0L149.7,99.72a8.81,8.81,0,0,0,0-12.47l0,0-4-4a8.86,8.86,0,0,0-12.53,0l-.12.13Z"/>
  </g>
</svg>
