<svg xmlns="http://www.w3.org/2000/svg" viewBox="0 0 128 167">
  <g id="Layer_6" data-name="Layer 6">
    <path id="Icon_awesome-file-download" data-name="Icon awesome-file-download" d="M73.38,45.53V2.5H10.1a7.57,7.57,0,0,0-7.6,7.55V156.91a7.57,7.57,0,0,0,7.56,7.59H116.41a7.57,7.57,0,0,0,7.59-7.56V53.12H81A7.61,7.61,0,0,1,73.38,45.53Zm24.18,66.88L67.05,142.69a5.39,5.39,0,0,1-7.6,0L28.94,112.41a5.06,5.06,0,0,1,3.56-8.66H53.13V78.44a5.06,5.06,0,0,1,5.06-5.07H68.31a5.07,5.07,0,0,1,5.07,5.07v25.31H94a5.06,5.06,0,0,1,3.56,8.66Zm24.23-76.69-31-31A7.58,7.58,0,0,0,85.43,2.5H83.5V43H124V41.07A7.59,7.59,0,0,0,121.79,35.72Z"/>
  </g>
</svg>
