<svg xmlns="http://www.w3.org/2000/svg" viewBox="0 0 160 160">
  <g id="Layer_3" data-name="Layer 3">
    <path id="Icon_awesome-github" data-name="Icon awesome-github" d="M56.1,122.84c0,.59-.68,1.07-1.54,1.07s-1.67-.39-1.67-1.07.68-1.08,1.55-1.08S56.1,122.15,56.1,122.84Zm-9.25-1.34c-.21.59.38,1.28,1.28,1.46a1.4,1.4,0,0,0,1.84-.6c.18-.6-.39-1.28-1.28-1.55a1.53,1.53,0,0,0-1.84.68ZM60,121c-.86.21-1.46.78-1.37,1.46s.87,1,1.76.77,1.46-.77,1.37-1.36-.89-1-1.76-.88ZM79.58,6.93C38.3,6.93,6.72,38.27,6.72,79.55a74.64,74.64,0,0,0,50.45,71.2c3.81.68,5.15-1.67,5.15-3.6s-.09-12-.09-18.28c0,0-20.83,4.47-25.21-8.87,0,0-3.39-8.66-8.27-10.89,0,0-6.82-4.67.47-4.58a15.72,15.72,0,0,1,11.49,7.68c6.52,11.48,17.44,8.18,21.7,6.22a16.46,16.46,0,0,1,4.76-10c-16.64-1.85-33.42-4.26-33.42-32.9,0-8.18,2.26-12.29,7-17.53a28.14,28.14,0,0,1,.78-20.21c6.22-1.93,20.54,8,20.54,8a70.37,70.37,0,0,1,37.38,0s14.32-10,20.54-8A28.14,28.14,0,0,1,120.78,58c4.76,5.27,7.68,9.38,7.68,17.53,0,28.72-17.53,31-34.17,32.89,2.74,2.36,5.06,6.82,5.06,13.82,0,10-.09,22.44-.09,24.88,0,1.93,1.37,4.28,5.15,3.6,29.76-9.88,49.94-38.13,49.94-71.14C154.35,38.27,120.87,6.93,79.58,6.93ZM35.65,109.59c-.38.29-.29,1,.21,1.54s1.16.69,1.55.3.3-1-.21-1.55S36,109.2,35.65,109.59Zm-3.21-2.41c-.21.38.09.86.68,1.16a.9.9,0,0,0,1.25-.16l0-.05c.21-.39-.09-.87-.68-1.16s-1.07-.09-1.28.2Zm9.64,10.59c-.47.39-.29,1.28.39,1.85s1.55.77,1.93.3.21-1.28-.38-1.85-1.55-.78-1.94-.3Zm-3.39-4.37c-.48.29-.48,1.07,0,1.75s1.28,1,1.67.69a1.37,1.37,0,0,0,0-1.85c-.42-.68-1.19-1-1.67-.59Z" fill="#fff"/>
  </g>
</svg>
