<svg xmlns="http://www.w3.org/2000/svg" viewBox="0 0 179 160">
  <g id="Layer_3" data-name="Layer 3">
    <path id="Icon_simple-instagram" data-name="Icon simple-instagram" d="M84,6.5c-20.3,0-22.84.09-30.81.45A55.13,55.13,0,0,0,35,10.42,36.66,36.66,0,0,0,21.79,19a36.36,36.36,0,0,0-8.62,13.25A54.84,54.84,0,0,0,9.69,50.43c-.37,8-.45,10.51-.45,30.81s.09,22.84.45,30.81a55.2,55.2,0,0,0,3.48,18.15,36.57,36.57,0,0,0,8.62,13.24A36.66,36.66,0,0,0,35,152.06a55.13,55.13,0,0,0,18.14,3.47c8,.37,10.5.45,30.81.45s22.84-.09,30.81-.45a55.45,55.45,0,0,0,18.15-3.47A38.2,38.2,0,0,0,154.8,130.2a55.19,55.19,0,0,0,3.47-18.15c.38-8,.45-10.5.45-30.81s-.09-22.84-.45-30.81a55.39,55.39,0,0,0-3.47-18.14A36.78,36.78,0,0,0,146.18,19a36.48,36.48,0,0,0-13.25-8.62A55.08,55.08,0,0,0,114.79,7C106.82,6.57,104.29,6.5,84,6.5ZM84,20c20,0,22.33.1,30.21.45A41.06,41.06,0,0,1,128.06,23a24.61,24.61,0,0,1,14.19,14.18A41.3,41.3,0,0,1,144.82,51c.36,7.89.44,10.25.44,30.21s-.1,22.33-.47,30.21a42,42,0,0,1-2.62,13.87,23.51,23.51,0,0,1-5.6,8.6,23.24,23.24,0,0,1-8.59,5.59,41.64,41.64,0,0,1-13.92,2.58c-7.94.35-10.27.43-30.26.43s-22.34-.09-30.27-.46a42.45,42.45,0,0,1-13.92-2.62,23.18,23.18,0,0,1-8.59-5.6,22.76,22.76,0,0,1-5.61-8.59,42.55,42.55,0,0,1-2.62-13.93c-.28-7.85-.38-10.27-.38-30.17s.1-22.34.38-30.28A42.34,42.34,0,0,1,25.41,37,22.24,22.24,0,0,1,31,28.35a22.19,22.19,0,0,1,8.59-5.58,41.44,41.44,0,0,1,13.84-2.63c7.94-.28,10.28-.37,30.27-.37L84,20Zm0,22.91a38.38,38.38,0,1,0,38.38,38.38h0A38.38,38.38,0,0,0,84,42.86Zm0,63.29A24.91,24.91,0,1,1,108.9,81.24,24.91,24.91,0,0,1,84,106.15Zm48.87-64.8a9,9,0,1,1-9-9h0A9,9,0,0,1,132.85,41.35Z"/>
  </g>
</svg>
