<svg xmlns="http://www.w3.org/2000/svg" viewBox="0 0 160 160">
  <g id="Layer_3" data-name="Layer 3">
    <path id="Icon_simple-instagram" data-name="Icon simple-instagram" d="M79.85,4.93C59.55,4.93,57,5,49,5.38A55.13,55.13,0,0,0,30.9,8.85a36.66,36.66,0,0,0-13.24,8.62A36.4,36.4,0,0,0,9,30.71,55,55,0,0,0,5.56,48.86c-.37,8-.45,10.5-.45,30.81s.09,22.84.45,30.81A55.1,55.1,0,0,0,9,128.62a36.52,36.52,0,0,0,8.62,13.25,36.66,36.66,0,0,0,13.24,8.62A55.13,55.13,0,0,0,49,154c8,.37,10.5.45,30.81.45s22.84-.09,30.81-.45a55.45,55.45,0,0,0,18.15-3.47,38.22,38.22,0,0,0,21.86-21.87,55.08,55.08,0,0,0,3.47-18.14c.38-8,.45-10.5.45-30.81s-.09-22.84-.45-30.81a55.45,55.45,0,0,0-3.47-18.15,36.83,36.83,0,0,0-8.62-13.24,36.4,36.4,0,0,0-13.24-8.62,54.94,54.94,0,0,0-18.15-3.47C102.69,5,100.16,4.93,79.85,4.93Zm0,13.45c20,0,22.33.1,30.21.44a41.32,41.32,0,0,1,13.87,2.59,24.58,24.58,0,0,1,14.19,14.18,41,41,0,0,1,2.57,13.87c.36,7.89.44,10.25.44,30.21s-.1,22.33-.47,30.21A42,42,0,0,1,138,123.75a23.51,23.51,0,0,1-5.6,8.6,23.24,23.24,0,0,1-8.59,5.59,41.38,41.38,0,0,1-13.92,2.57c-7.94.36-10.27.44-30.26.44s-22.34-.09-30.27-.46a42.45,42.45,0,0,1-13.92-2.62,23.18,23.18,0,0,1-8.59-5.6,22.72,22.72,0,0,1-5.61-8.6,42.45,42.45,0,0,1-2.62-13.92c-.28-7.85-.38-10.27-.38-30.17s.1-22.34.38-30.28a42.34,42.34,0,0,1,2.62-13.91,22.24,22.24,0,0,1,5.6-8.61,22.08,22.08,0,0,1,8.59-5.58,41.19,41.19,0,0,1,13.84-2.63c7.94-.28,10.28-.38,30.27-.38l.28.19Zm0,22.91a38.38,38.38,0,1,0,38.38,38.38h0A38.37,38.37,0,0,0,79.86,41.29Zm0,63.29a24.91,24.91,0,1,1,24.92-24.91,24.91,24.91,0,0,1-24.92,24.91Zm48.87-64.8a9,9,0,1,1-9-9h0A9,9,0,0,1,128.72,39.78Z" fill="#fff"/>
  </g>
</svg>
