<svg xmlns="http://www.w3.org/2000/svg" viewBox="0 0 163 167">
  <g id="Layer_3" data-name="Layer 3">
    <path id="Icon_simple-instagram" data-name="Icon simple-instagram" d="M79.35,10.43c-20.3,0-22.84.09-30.81.45A55.13,55.13,0,0,0,30.4,14.35,36.66,36.66,0,0,0,17.16,23,36.4,36.4,0,0,0,8.54,36.21,55,55,0,0,0,5.06,54.36c-.37,8-.45,10.5-.45,30.81S4.7,108,5.06,116a55.1,55.1,0,0,0,3.48,18.14,36.52,36.52,0,0,0,8.62,13.25A36.66,36.66,0,0,0,30.4,156a55.13,55.13,0,0,0,18.14,3.47c8,.37,10.5.45,30.81.45s22.84-.09,30.81-.45A55.45,55.45,0,0,0,128.31,156a38.22,38.22,0,0,0,21.86-21.87A55.08,55.08,0,0,0,153.64,116c.38-8,.45-10.5.45-30.81s-.09-22.84-.45-30.81a55.45,55.45,0,0,0-3.47-18.15A36.83,36.83,0,0,0,141.55,23a36.4,36.4,0,0,0-13.24-8.62,54.94,54.94,0,0,0-18.15-3.47C102.19,10.5,99.66,10.43,79.35,10.43Zm0,13.45c20,0,22.33.1,30.21.44a41.32,41.32,0,0,1,13.87,2.59,24.58,24.58,0,0,1,14.19,14.18A41,41,0,0,1,140.19,55c.36,7.89.44,10.25.44,30.21s-.1,22.33-.47,30.21a42,42,0,0,1-2.62,13.87,23.51,23.51,0,0,1-5.6,8.6,23.24,23.24,0,0,1-8.59,5.59A41.38,41.38,0,0,1,109.43,146c-7.94.36-10.27.44-30.26.44s-22.34-.09-30.27-.46A42.45,42.45,0,0,1,35,143.37a23.18,23.18,0,0,1-8.59-5.6,22.72,22.72,0,0,1-5.61-8.6,42.45,42.45,0,0,1-2.62-13.92c-.28-7.85-.38-10.27-.38-30.17s.1-22.34.38-30.28a42.34,42.34,0,0,1,2.62-13.91,22.24,22.24,0,0,1,5.6-8.61A22.08,22.08,0,0,1,35,26.7a41.19,41.19,0,0,1,13.84-2.63c7.94-.28,10.28-.38,30.27-.38l.28.19Zm0,22.91a38.38,38.38,0,1,0,38.38,38.38h0A38.37,38.37,0,0,0,79.36,46.79Zm0,63.29a24.91,24.91,0,1,1,24.92-24.91,24.91,24.91,0,0,1-24.92,24.91Zm48.87-64.8a9,9,0,1,1-9-9h0A9,9,0,0,1,128.22,45.28Z" fill="#fff"/>
  </g>
</svg>
