<svg xmlns="http://www.w3.org/2000/svg" viewBox="0 0 163 167">
  <g id="Layer_3" data-name="Layer 3">
    <path id="Icon_simple-linkedin" data-name="Icon simple-linkedin" d="M130.46,133.11H108.62V98.89c0-8.17-.16-18.67-11.38-18.67-11.38,0-13.12,8.88-13.12,18.06v34.83H62.28V62.73h21v9.6h.28C86.47,66.8,93.6,61,104.25,61c22.13,0,26.21,14.55,26.21,33.51Zm-92.84-80A12.69,12.69,0,1,1,50.3,40.42,12.69,12.69,0,0,1,37.62,53.11h0Zm11,80H26.66V62.73h21.9ZM141.39,7.43H15.7A10.75,10.75,0,0,0,4.82,18.05h0V144.28a10.74,10.74,0,0,0,10.87,10.63H141.37a10.78,10.78,0,0,0,10.92-10.63V18.05A10.79,10.79,0,0,0,141.37,7.43Z" fill="#fff"/>
  </g>
</svg>
