<svg xmlns="http://www.w3.org/2000/svg" viewBox="0 0 160 160">
  <g id="Layer_3" data-name="Layer 3">
    <path id="Icon_simple-linkedin" data-name="Icon simple-linkedin" d="M132.59,131.68H110.75V97.46c0-8.16-.16-18.67-11.38-18.67-11.38,0-13.12,8.88-13.12,18.06v34.83H64.41V61.31h21V70.9h.28c2.93-5.53,10.06-11.36,20.71-11.36,22.13,0,26.21,14.55,26.21,33.51Zm-92.84-80A12.69,12.69,0,1,1,52.43,39,12.69,12.69,0,0,1,39.75,51.68h0Zm11,80H28.79V61.31h21.9ZM143.52,6H17.83A10.75,10.75,0,0,0,7,16.62H7V142.86a10.74,10.74,0,0,0,10.87,10.62H143.5a10.78,10.78,0,0,0,10.92-10.62V16.63A10.79,10.79,0,0,0,143.5,6Z"/>
  </g>
</svg>
