<svg xmlns="http://www.w3.org/2000/svg" viewBox="0 0 160 160">
  <g id="Layer_3" data-name="Layer 3">
    <path id="Icon_simple-linkedin" data-name="Icon simple-linkedin" d="M132,131.61H110.12V97.39c0-8.17-.16-18.67-11.38-18.67-11.38,0-13.12,8.88-13.12,18.06v34.83H63.78V61.23h21v9.6H85C88,65.3,95.1,59.47,105.75,59.47,127.88,59.46,132,74,132,93Zm-92.84-80A12.69,12.69,0,1,1,51.8,38.92,12.69,12.69,0,0,1,39.12,51.61h0Zm11,80H28.16V61.23h21.9ZM142.89,5.93H17.2A10.75,10.75,0,0,0,6.32,16.55h0V142.78a10.74,10.74,0,0,0,10.87,10.63H142.87a10.78,10.78,0,0,0,10.92-10.63V16.55A10.79,10.79,0,0,0,142.87,5.93Z" fill="#fff"/>
  </g>
</svg>
