<svg xmlns="http://www.w3.org/2000/svg" viewBox="0 0 179 167">
  <g id="Layer_3" data-name="Layer 3">
    <path id="Icon_simple-linkedin" data-name="Icon simple-linkedin" d="M139.09,133.18H117.25V99c0-8.16-.16-18.67-11.38-18.67-11.38,0-13.12,8.88-13.12,18.06v34.83H70.91V62.81h21V72.4h.28C95.1,66.87,102.23,61,112.88,61c22.13,0,26.21,14.55,26.21,33.51Zm-92.84-80A12.69,12.69,0,1,1,58.93,40.49,12.69,12.69,0,0,1,46.25,53.18h0Zm11,80H35.29V62.81h21.9ZM150,7.5H24.33A10.75,10.75,0,0,0,13.45,18.12h0V144.36A10.74,10.74,0,0,0,24.32,155H150a10.78,10.78,0,0,0,10.92-10.62V18.13A10.79,10.79,0,0,0,150,7.5Z"/>
  </g>
</svg>
