<svg xmlns="http://www.w3.org/2000/svg" viewBox="0 0 163 167">
  <g id="Layer_6" data-name="Layer 6">
    <path id="Icon_awesome-phone-alt" data-name="Icon awesome-phone-alt" d="M150.22,110.2,118.68,96.68a6.77,6.77,0,0,0-7.89,1.94l-14,17.07a104.41,104.41,0,0,1-49.9-49.91L64,51.81A6.72,6.72,0,0,0,65.92,44L52.4,12.38a6.81,6.81,0,0,0-7.74-3.91L15.37,15.23a6.76,6.76,0,0,0-5.24,6.59A130.67,130.67,0,0,0,140.78,152.5h0a6.76,6.76,0,0,0,6.59-5.24L154.16,118a6.85,6.85,0,0,0-3.95-7.78Z" fill="#fff"/>
  </g>
</svg>
