<svg xmlns="http://www.w3.org/2000/svg" viewBox="0 0 147 149">
  <g id="Layer_6" data-name="Layer 6">
    <path id="Icon_awesome-phone-alt" data-name="Icon awesome-phone-alt" d="M141.22,103.2,109.68,89.68a6.77,6.77,0,0,0-7.89,1.94l-14,17.07a104.41,104.41,0,0,1-49.9-49.91L55,44.81A6.72,6.72,0,0,0,56.92,37L43.4,5.38a6.81,6.81,0,0,0-7.74-3.91L6.37,8.23a6.76,6.76,0,0,0-5.24,6.59A130.67,130.67,0,0,0,131.78,145.5h0a6.76,6.76,0,0,0,6.59-5.24L145.16,111a6.85,6.85,0,0,0-3.95-7.78Z" fill="#fff"/>
  </g>
</svg>
